<svg xmlns="http://www.w3.org/2000/svg" viewBox="0 0 640 380" role="img" aria-labelledby="title desc">
  <title id="title">Portfolio website preview</title>
  <desc id="desc">Portfolio website preview with hero layout and project cards.</desc>
  <rect width="640" height="380" rx="24" fill="#0f172a"/>
  <rect x="38" y="42" width="564" height="296" rx="20" fill="#1e293b"/>
  <rect x="68" y="70" width="504" height="36" rx="18" fill="#111827"/>
  <rect x="92" y="82" width="86" height="12" rx="6" fill="#38bdf8"/>
  <circle cx="500" cy="88" r="7" fill="#38bdf8"/>
  <circle cx="528" cy="88" r="7" fill="#22c55e"/>
  <circle cx="556" cy="88" r="7" fill="#f59e0b"/>
  <rect x="78" y="144" width="222" height="20" rx="10" fill="#38bdf8"/>
  <rect x="78" y="184" width="178" height="12" rx="6" fill="#cbd5e1"/>
  <rect x="78" y="214" width="236" height="12" rx="6" fill="#64748b"/>
  <rect x="78" y="254" width="96" height="30" rx="15" fill="#38bdf8"/>
  <rect x="360" y="138" width="146" height="146" rx="22" fill="#0f172a"/>
  <path d="M398 232h70l-8-48h-54z" fill="#334155"/>
  <rect x="386" y="232" width="94" height="12" rx="6" fill="#38bdf8"/>
  <rect x="390" y="168" width="86" height="12" rx="6" fill="#94a3b8"/>
  <rect x="390" y="194" width="66" height="10" rx="5" fill="#64748b"/>
  <rect x="390" y="214" width="78" height="10" rx="5" fill="#64748b"/>
</svg>
